<svg
  xmlns="http://www.w3.org/2000/svg"
  xmlns:xlink="http://www.w3.org/1999/xlink"
  version="1.1"
  x="0px"
  y="0px"
  viewBox="0 0 96 96"
  enable-background="new 0 0 96 96"
  xml:space="preserve">
    <path d="M51.283,7.69c-21.367,0-38.75,17.384-38.75,38.751c0,7.399,2.093,14.577,6.058,20.794l-6.277,16.49  c-0.156,0.409-0.05,0.87,0.268,1.17c0.205,0.194,0.472,0.296,0.742,0.296c0.149,0,0.3-0.03,0.442-0.094l15.361-6.875  c6.524,4.562,14.172,6.969,22.157,6.969c21.368,0,38.751-17.384,38.751-38.75C90.034,25.074,72.651,7.69,51.283,7.69z   M48.846,57.236H32.484V35.645h15.835v3.823H36.893v4.585h10.488v3.75H36.893v5.552h11.953V57.236z M69.793,57.236h-4.51  l-8.791-15.32v15.32h-4.203V35.645h4.729L65.59,50.7V35.645h4.203V57.236z"/>
</svg>