<?xml version="1.0" encoding="UTF-8"?>
<svg id="Layer_1" data-name="Layer 1" xmlns="http://www.w3.org/2000/svg" viewBox="0 0 425.2 425.2">
  <defs>
    <style>
      .cls-1, .cls-2 {
        stroke-width: 0px;
      }

      .cls-2 {
        fill: #fff;
      }
    </style>
  </defs>
  <path class="cls-1" d="m58.55,178.55c13.35-71.44,92.54-101.87,169.62-93.76,88.65,9.32,147.62,59.96,139.35,138.64-8.27,78.68-151.02,111.43-174.56,118.06-1.96.55-4.07-.08-5.38-1.6h0c-1.99-2.32-1.39-5.78,1.3-7.28,5.76-3.23,14.96-9.17,20.68-16.76,2.4-3.19.02-7.66-4.09-7.74-64.98-1.4-162.45-46.4-146.92-129.54Z"/>
  <g>
    <path class="cls-2" d="m122.71,144.6l7.88,16.59-.78,7.46c-.08.79-.71,1.32-1.44,1.25l-3.87-.41-.4,3.85,16.48,1.73.4-3.85-3.68-.39c-1.13-.12-1.49-.51-1.39-1.5l.81-7.74c7.69-10.14,9.55-12.65,10.17-13.47l.35-.47c1.14-1.47,2.39-1.34,4.28-1.14l.35.04.41-3.85-13.14-1.38-.41,3.85,1.71.18c2.24.23,2.4.41,2.31,1.25-.05.2-.7,1.05-1.88,2.59-1.23,1.61-3.07,4.01-5.89,7.82-.85-1.84-1.63-3.54-2.33-5.06-1.59-3.44-2.86-6.18-3.01-6.63.05-.35.21-.67.42-.84.16-.13.35-.18.56-.16l3.45.36.41-3.85-15.16-1.59-.41,3.85,1.43.15c1.34.14,2.04.37,2.35,1.36Z"/>
    <path class="cls-2" d="m146.8,162.77c-.87,8.27,3.31,13.9,10.91,14.7.56.06,1.11.09,1.65.09,6.81,0,11.75-4.62,12.52-11.91.82-7.78-3.68-13.75-10.93-14.51-7.53-.79-13.35,3.99-14.16,11.63Zm6.27.9c.45-4.31,2.1-9.35,7.31-8.79,2.22.23,3.77,1.4,4.62,3.46.86,2.08.82,4.59.64,6.33-.47,4.49-2.13,9.73-7.44,9.16-2.34-.25-3.87-1.42-4.66-3.58-.6-1.63-.75-3.84-.47-6.57Z"/>
    <path class="cls-2" d="m203.59,177.82c-.2.15-.46.23-.71.2l-2.61-.27-.38,3.57,13.24,1.39.38-3.57-3.07-.32c-.3-.03-.5-.26-.6-.4-.15-.22-.24-.49-.21-.71l1.52-14.46c.46-4.37-3.46-7.17-7.39-7.59-3.27-.34-6.04.71-8.27,3.12l.2-.62.34-3.2-10.09-.19-.35,3.35,3.45.36c.35.04.76.23.68.95l-1.64,15.58c-.14,1.29-.86,1.36-1.16,1.33l-2.93-.31-.38,3.57,13.71,1.44.38-3.57-2.93-.31c-.51-.05-1.04-.22-.91-1.54l1.12-10.61c.15-1.47.99-2.83,2.34-3.81,1.3-.95,2.88-1.4,4.34-1.25,2.02.21,3.95,1.48,3.7,3.83l-1.42,13.47c-.02.22-.14.42-.34.57Z"/>
    <path class="cls-2" d="m227.8,184.84c.56.06,1.11.09,1.65.09,6.81,0,11.75-4.62,12.52-11.91.82-7.78-3.68-13.75-10.93-14.51-7.53-.79-13.35,3.99-14.16,11.63-.87,8.27,3.31,13.9,10.91,14.7Zm-4.65-13.8c.45-4.31,2.1-9.34,7.31-8.79,2.22.23,3.77,1.4,4.62,3.46.86,2.08.82,4.59.64,6.33-.29,2.79-.95,4.99-1.95,6.55-1.28,1.98-3.13,2.86-5.49,2.61-2.34-.25-3.87-1.42-4.66-3.58-.6-1.63-.75-3.84-.47-6.57Z"/>
    <path class="cls-2" d="m125.75,199.86c4.12.43,6.23,2.35,6.66,6.02l.03.28,3.26.34.99-9.44-2.93-.31-1.07,1.96c-1.8-1.6-3.95-2.49-6.72-2.78-4.81-.5-9.9,1.38-10.46,6.71-.37,3.48,1.54,6.09,5.5,7.57l7.13,2.6c1.86.65,2.69,1.6,2.55,2.91-.27,2.54-3.08,3.16-5.41,2.92-4.28-.45-7.01-3.2-7.15-7.18v-.31s-3.3-.35-3.3-.35l-1.04,9.9,3.15.33.73-1.78c2.29,2.04,4.64,3.06,7.75,3.38.49.05.98.08,1.46.08,2.08,0,4.02-.48,5.59-1.39,2.21-1.29,3.53-3.35,3.8-5.97.35-3.38-1.5-6.13-4.96-7.37l-8.15-2.9c-.69-.23-2.28-.97-2.09-2.77.29-2.79,3.93-2.55,4.65-2.48Z"/>
    <path class="cls-2" d="m153.81,198.84c-7.53-.79-13.35,3.99-14.16,11.63-.41,3.88.33,7.3,2.13,9.88,1.91,2.75,4.95,4.41,8.79,4.81.58.06,1.14.09,1.7.09,3.12,0,5.87-.95,8.03-2.79,2.5-2.13,4.04-5.28,4.44-9.12.82-7.78-3.68-13.75-10.93-14.51Zm4.68,13.52c-.29,2.79-.95,4.99-1.95,6.54-1.28,1.98-3.13,2.87-5.49,2.61-2.34-.25-3.87-1.42-4.66-3.58-.6-1.63-.75-3.84-.47-6.57.27-2.62.93-4.79,1.91-6.27,1.12-1.71,2.68-2.57,4.64-2.57.25,0,.5.01.76.04,2.22.23,3.77,1.4,4.62,3.46.86,2.08.82,4.59.64,6.33Z"/>
    <path class="cls-2" d="m182.58,206.14l3.83.4c.12.01.21.05.25.1.07.08.07.22.06.32-.11.58-3.77,7.75-6.71,13.48l-.74-2.56c-2.2-7.63-3.3-11.45-3.26-11.94.02-.16.07-.29.14-.37.03-.03.1-.11.31-.08l3.4.36.36-3.38-13.28-1.4-.36,3.38,2.23.23c.73.08.98.73,1.11,1.23l6.43,21.42-2.81,5.51c-1.03,2.06-2.25,2.91-3.94,2.73-.2-.02-.39-.07-.56-.16.9-.48,1.45-1.32,1.56-2.42.19-1.77-1.12-3.37-2.92-3.56-2.06-.21-3.76,1.27-3.99,3.45-.36,3.45,2.65,5.86,5.78,6.18.29.03.57.04.86.04,2.8,0,5.32-1.45,6.57-3.86l4.68-8.97c4.74-9.07,7.86-15.06,9.29-17.93.34-.65.88-1.24,1.13-1.22l2.84.3.36-3.38-12.25-1.29-.36,3.38Z"/>
    <path class="cls-2" d="m234.71,202.02c-2.35-2.61-5.65-4.3-9.13-4.67-4.77-.5-9.04.98-12.36,4.29-3.03,3.02-4.97,7.31-5.47,12.08-1.15,10.95,4.16,18.11,14.19,19.17.79.08,1.54.12,2.28.12,3.9,0,7.07-1.16,9.46-3.47,2.48-2.39,4.03-6.04,4.51-10.54l.04-.35-4.13-.43-.04.35c-.71,6.8-5,10.79-10.92,10.17-8.55-.9-8.96-9.34-8.44-14.29.66-6.26,3.07-13.56,10.9-12.73,3.11.33,8.4,2.12,8.99,10.43l.02.3,3.75.39,1.38-13.14-3.34-.35-1.69,2.68Z"/>
    <path class="cls-2" d="m266.95,232.04l1.52-14.48c.21-4.43-3.58-7.17-7.44-7.57-3.26-.34-6.03.71-8.27,3.12l.2-.62,1.48-14.04-10.09-.19-.35,3.35,3.45.36c.16.02.37.07.51.21.15.15.2.4.17.74l-2.78,26.43c-.06.56-.23.94-.52,1.15-.25.19-.53.18-.64.17l-2.89-.3-.38,3.57,13.71,1.44.38-3.57-2.98-.31c-.48-.05-.65-.23-.74-.36-.17-.24-.22-.64-.16-1.19l1.16-11.03c.15-1.44.97-2.72,2.3-3.59,1.26-.82,2.83-1.21,4.33-1.05,1.1.12,2.08.52,2.75,1.15.74.69,1.06,1.61.95,2.67l-1.42,13.47c-.05.46-.55.82-1.05.77l-2.61-.27-.38,3.57,13.24,1.39.38-3.57-3.08-.32c-.44-.05-.81-.67-.76-1.1Z"/>
    <path class="cls-2" d="m287.96,212.51c-3.75-.39-7.09.6-9.64,2.88-2.42,2.16-3.97,5.39-4.36,9.11-.4,3.84.37,7.21,2.24,9.75,1.98,2.69,5.13,4.34,9.12,4.76.48.05.96.07,1.42.07,6.28,0,10.55-4.49,10.93-8.06l.04-.35-3.78-.4-.09.27c-.07.2-1.79,5-7.42,4.4-2.11-.22-3.71-.99-4.74-2.3-1.19-1.49-1.66-3.72-1.41-6.61l18.02,1.89.04-.35c.92-8.78-2.85-14.27-10.35-15.06Zm-7.16,9.69c.47-3.27,2.63-6.27,6.56-5.86,4.43.47,4.85,4.46,4.64,7.04l-11.21-1.18Z"/>
    <path class="cls-2" d="m313.96,210.15c.16-1.51,1.52-2.57,3.08-2.4.32.03.62.12.84.2-.42.45-.7.93-.79,1.78-.09.85.14,1.66.63,2.28.5.63,1.26,1.03,2.12,1.12,1.01.1,1.91-.14,2.61-.7.71-.58,1.15-1.45,1.26-2.52.17-1.67-.51-3.07-1.98-4.05-1.5-1-3.43-1.33-4.44-1.44-2.14-.23-4.21.08-5.8.86-1.94.94-3.07,2.52-3.29,4.57l-.62,5.89-3.8-.4-.36,3.43,3.75.39-1.73,16.45c-.05.52-.22.89-.49,1.11-.29.23-.62.22-.72.21l-2.98-.31-.38,3.57,15.16,1.59.38-3.57-4.25-.45c-.68-.07-1.08-.35-.95-1.55l1.73-16.45,6.57.69.36-3.43-6.57-.69.65-6.17Z"/>
    <path class="cls-2" d="m324.08,235.98c-.95-.1-1.93.2-2.7.81-.78.63-1.27,1.51-1.38,2.49-.21,1.97,1.3,3.82,3.3,4.03.12.01.25.02.37.02,1.83,0,3.46-1.43,3.65-3.27.21-2-1.28-3.86-3.25-4.07Z"/>
  </g>
</svg>